<svg xmlns="http://www.w3.org/2000/svg" xmlns:xlink="http://www.w3.org/1999/xlink" fill="none" version="1.1" width="560" height="560" viewBox="0 0 560 560"><defs><clipPath id="master_svg0_70_022"><rect x="0" y="0" width="560" height="560" rx="0"/></clipPath></defs><g clip-path="url(#master_svg0_70_022)"><g><g><g transform="matrix(1,-2.2348338291067193e-8,2.2348338291067193e-8,1,-0.000010503719011012436,0.000007911311740826932)"><path d="M354 470C354 470 354 470 354 470L560 470C560 470 560 470 560 470L560 513C560 536.7482442427241 540.7482442427241 556 517 556L354 556C354 556 354 556 354 556Z" fill="#50ADBB" fill-opacity="1"/></g><g transform="matrix(1,-2.2348338291067193e-8,2.2348338291067193e-8,1,-0.0000062128380591275345,0.000010593112335754995)"><path d="M474 278C474 278 474 278 474 278L517 278C540.7482442427241 278 560 297.2517557572759 560 321L560 481C560 481 560 481 560 481L474 481C474 481 474 481 474 481Z" fill="#50ADBB" fill-opacity="1"/></g><g transform="matrix(1,-2.2348338291067193e-8,2.2348338291067193e-8,1,-0.0000062128380591275345,0.000008671155228512362)"><rect x="388" y="278" width="90" height="86" rx="0" fill="#50ADBB" fill-opacity="1"/></g><g transform="matrix(1,-2.2348338291067193e-8,2.2348338291067193e-8,1,-1.1174168434990861e-7,0.0000023689238588531225)"><rect x="106" y="5" width="187" height="86" rx="0" fill="#50ADBB" fill-opacity="1"/></g><g><path d="M282 5C282 5 282 5 282 5L325 5C348.7482442427241 5 368 24.251755757275888 368 48L368 556C368 556 368 556 368 556L325 556C301.2517557572759 556 282 536.7482442427241 282 513Z" fill="#50ADBB" fill-opacity="1"/></g></g><g><g><path d="M0 48C3.924219170633544e-15 24.25175575727588 19.251755757275888 5 43 5L86 5C86 5 86 5 86 5L86 364C86 364 86 364 86 364L43 364C19.251755757275888 364 0 344.7482442427241 0 321Z" fill="#9ED8E0" fill-opacity="1"/></g><g transform="matrix(1,-2.2348338291067193e-8,2.2348338291067193e-8,1,-0.0000062128373627956535,0.0000015643836945855583)"><rect x="70" y="277.9999694824219" width="192" height="86" rx="0" fill="#9ED8E0" fill-opacity="1"/></g></g></g></g></svg>